<?xml version="1.0" encoding="UTF-8"?>
<svg xmlns="http://www.w3.org/2000/svg" xmlns:xlink="http://www.w3.org/1999/xlink" version="1.2" id="Layer_1" x="0px" y="0px" viewBox="0 0 515.6 159.6" overflow="visible" xml:space="preserve">
<g>
	<path id="XMLID_00000147206229267564680020000004004135699269336483_" fill="#FFFFFF" d="M0.3,87.2c0-9,2.7-16.3,8.1-22   s12.5-8.6,21.5-8.6c4.7,0,8.7,0.7,12.2,2.1c4.7,2,7,5,7,8.9c0,2-0.7,3.8-2,5.2c-1.4,1.4-3,2.1-5.1,2.1c-1.4,0-3.1-0.4-5.2-1.3   c-2.2-0.9-4.4-1.3-6.8-1.3c-3.9,0-6.9,1.5-9,4.5c-1.9,2.7-2.9,6-2.9,10.1c0,4.2,1,7.6,3,10.2c2.3,2.8,5.4,4.2,9.6,4.2   c2.4,0,4.6-0.4,6.7-1.3s3.8-1.3,5.1-1.3c2,0,3.6,0.7,4.8,2.2c1.2,1.4,1.9,3.2,1.9,5.3c0,3.5-2.4,6.4-7.2,8.8   c-3.5,1.7-7.8,2.6-13,2.6c-8.6,0-15.6-2.9-20.8-8.8C2.8,103.1,0.3,95.9,0.3,87.2z"></path>
	<path id="XMLID_00000011709421232532605960000005881258370138351524_" fill="#FFFFFF" d="M69.9,62.6c3.2-3.4,8.1-5.1,14.6-5.1   c13.9,0,20.9,7.4,20.9,22.3v24.7c0,8.4-2.9,12.6-8.6,12.6s-8.6-4.2-8.6-12.5V85.1c0-4.2-0.5-7.2-1.5-9c-1.3-2.6-3.9-3.8-7.7-3.8   c-6,0-9.1,4.2-9.1,12.6v19.7c0,8.4-2.9,12.5-8.6,12.5c-5.8,0-8.8-4.2-8.8-12.5V45.6c0-8.4,2.9-12.5,8.8-12.5   c5.8,0,8.6,4.2,8.6,12.5L69.9,62.6L69.9,62.6z"></path>
	<path id="XMLID_00000088848969824707303540000008918533525109482644_" fill="#FFFFFF" d="M125.1,92c0.4,3.3,1.7,5.9,4.1,7.6   c2.4,1.8,5.3,2.6,8.8,2.6c2.9,0,6.4-0.9,10.5-2.8c4.1-1.9,6.6-2.8,7.6-2.8c4.5,0,6.8,2.2,6.8,6.7c0,1.7-0.6,3.4-1.9,5.1   c-2.3,3.1-5.9,5.5-10.8,7.1c-4.2,1.4-8.5,2.1-13.1,2.1c-8.5,0-15.6-2.9-21.2-8.8c-5.7-5.8-8.5-13.1-8.5-21.6   c0-8.5,2.7-15.8,8.1-21.8c5.4-6,12.3-9,20.8-9c4.2,0,8,0.8,11.4,2.3c4.9,2.3,8.9,5.6,12,10.1s4.7,9.3,4.7,14.5c0,2.8-1,5-3.1,6.5   c-1.8,1.4-4.1,2-7,2L125.1,92L125.1,92z M124.9,80.7h22.6c-0.2-3-1.4-5.4-3.4-7.3s-4.6-2.9-7.6-2.9c-3,0-5.6,0.9-7.6,2.8   C126.8,75.2,125.4,77.7,124.9,80.7z"></path>
	<path id="XMLID_00000059273740675111268350000007073423903420935327_" fill="#FFFFFF" d="M167.6,104.5V69.9   c0-8.3,2.8-12.5,8.4-12.5c3.6,0,6.4,1.8,8.5,5.4c3.2-3.6,7.8-5.4,13.7-5.4c7.5,0,13.2,2.6,17.1,7.8c4.7-5.2,10.5-7.8,17.3-7.8   c13,0,19.4,7.4,19.4,22.3v24.7c0,8.4-2.8,12.6-8.6,12.6c-5.6,0-8.3-4.2-8.3-12.5V85.1c0-8.6-2.7-12.9-8-12.9   c-5.8,0-8.8,4.2-8.8,12.6v19.7c0,8.4-2.8,12.5-8.4,12.5c-5.6,0-8.4-4.2-8.4-12.5V85.1c0-8.6-2.6-12.9-7.9-12.9   c-5.9,0-8.9,4.2-8.9,12.6v19.7c0,8.4-2.8,12.5-8.4,12.5C170.5,117.1,167.6,112.9,167.6,104.5z"></path>
	<path id="XMLID_00000039827411295034210030000009234208044216993978_" fill="#FFFFFF" d="M256.3,42.9c0-2.8,1-5.1,2.9-7   c1.9-1.9,4.3-2.9,7.1-2.9c2.8,0,5.1,1,7,2.9c1.9,1.9,2.8,4.2,2.8,7c0,2.8-0.9,5.1-2.8,7c-1.9,1.9-4.2,2.9-7,2.9   c-2.8,0-5.2-0.9-7.1-2.8C257.3,48.1,256.3,45.8,256.3,42.9z M274.8,104.5c0,8.4-2.8,12.6-8.5,12.6c-5.7,0-8.6-4.2-8.6-12.6V69.9   c0-8.3,2.9-12.5,8.6-12.5c5.7,0,8.5,4.2,8.5,12.5V104.5z"></path>
	<path id="XMLID_00000032635790457949728130000010484164119776350366_" fill="#FFFFFF" d="M299.7,117.8c-9.6,0-16.1-2.6-19.7-7.8   c-1.1-1.6-1.6-3.2-1.6-4.9c0-5.2,2.7-7.8,8.1-7.8c1.6,0,3.7,0.8,6.5,2.6c2.8,1.7,5.4,2.6,7.9,2.6c3.2,0,4.8-1.2,4.8-3.5   c0-1.5-2.2-3.2-6.7-5.2c-6.2-2.8-10.3-4.9-12.3-6.5c-4.5-3.3-6.7-7.4-6.7-12.2c0-5.7,2.2-10.2,6.6-13.7c4.1-3.2,9.1-4.9,14.9-4.9   c3.6,0,7,0.6,10.3,1.7c3.9,1.4,6.7,3.3,8.4,5.8c1,1.5,1.5,3,1.5,4.5c0,2-0.7,3.8-2,5.2c-1.3,1.4-3,2.1-5.1,2.1   c-1.5,0-3.7-0.7-6.7-2.1c-3-1.4-5.3-2.1-7-2.1c-2.6,0-3.9,1-3.9,3c0,1.6,1.1,2.8,3.3,3.6c4.8,1.8,8.2,3.3,10.3,4.2   c4,2,6.9,4.1,9,6.3c2.3,2.6,3.5,5.8,3.5,9.7c0,6-2.4,10.8-7.3,14.5C311.1,116.1,305.8,117.8,299.7,117.8z"></path>
	<path id="XMLID_00000078732935117890752780000005473182940803060390_" fill="#FFFFFF" d="M334.5,74.1c-6.9,0-10.3-2.5-10.3-7.4   c0-4.8,3.4-7.3,10.3-7.6c0-6.9,0.1-11.1,0.4-12.5c1.1-5,3.8-7.6,8.2-7.6c4.3,0,7,2.5,8.1,7.6c0.3,1.4,0.4,5.6,0.4,12.5   c8.3,0,12.4,2.6,12.4,7.6c0,5-4.1,7.4-12.4,7.4v30.4c0,8.4-2.8,12.5-8.5,12.5c-5.7,0-8.6-4.2-8.6-12.5V74.1z"></path>
</g>
<g>
	<path id="XMLID_00000019680557786005890740000000287929021141929887_" fill="#E61C8B" d="M364,79.8c0-41.9,34-75.9,75.9-75.9   c41.9,0,75.9,34,75.9,75.9s-34,75.9-75.9,75.9C398,155.7,364,121.7,364,79.8"></path>
	<path id="XMLID_00000106835986845478058070000004411940989911974052_" fill="#E73895" d="M490.4,29.3   c-12.9-12.9-30.7-20.9-50.5-20.9c-3.9,0-7.8,0.4-11.5,1c-3,7.9-8.3,26-6.4,52.4c2.4,33.1-23.4,52.1-43.1,54.7   c3,5,6.5,9.6,10.7,13.7c12.9,12.9,30.8,20.9,50.5,20.9s37.6-8,50.5-20.9s20.9-30.7,20.9-50.5C511.3,60.1,503.3,42.3,490.4,29.3"></path>
	<path id="XMLID_00000147902436847906055100000009503028775207977400_" fill="#E68BB2" d="M440.3,8.1c-6,0-12,0.8-17.8,2.3   c1.9-0.2,3.8-0.3,5.7-0.3c0.1-0.2,0.2-0.4,0.2-0.6c3.8-0.6,7.6-1,11.5-1c19.7,0,37.6,8,50.5,20.9c12.9,12.9,20.9,30.7,20.9,50.5   c0,15.1-4.6,29-12.6,40.5c-0.1,0.2-0.2,0.4-0.2,0.6c8.3-12,12.9-26.3,12.9-41C511.3,40.3,479.5,8.1,440.3,8.1"></path>
	<path id="XMLID_00000060749609570778496950000005686621264125590431_" fill="#ED80B9" d="M439.9,8.4c-3.9,0-7.8,0.4-11.5,1   c-0.1,0.2-0.2,0.4-0.2,0.6c0.2,0,0.3,0,0.4,0c42.1,0,76.3,35.5,76.3,79.1c0,10.7-2.1,21.3-6.2,31.1c8-11.5,12.6-25.5,12.6-40.5   c0-19.7-8-37.6-20.9-50.5C477.5,16.4,459.6,8.4,439.9,8.4"></path>
	<path id="XMLID_00000014607230244958631330000002444480209679850415_" fill="#FFFFFF" d="M442.1,105.2v10.9   c0,7.7-3.5,11.6-10.6,11.6c-6.2,0-9.3-4.1-9.3-12.2v-10.3h-28.4c-3.8,0-7.1-1-9.7-3.1s-3.9-5-3.9-8.7c0-5.1,2.2-11.1,6.6-18.1   l22.1-35.2c4.4-6.9,9.8-10.3,16.2-10.3c5.9,0,10.4,2.3,13.4,6.9c2.4,3.8,3.7,8.9,3.7,15.1v35c7,0,10.5,3.1,10.5,9.3   C452.6,102.2,449.1,105.2,442.1,105.2z M399.7,86.8h22.5V50.4L399.7,86.8z"></path>
	<path id="XMLID_00000118379912056003695670000014513851865484159907_" fill="#FFFFFF" d="M456.5,75V56.4c0-5,1.7-7.4,5.2-7.4   s5.2,2.5,5.2,7.4v17.4c0,8.1,3.1,12.2,9.3,12.2c6.2,0,9.3-4.1,9.3-12.2V56.4c0-5,1.7-7.4,5.2-7.4c3.5,0,5.2,2.5,5.2,7.4V75   c0,6.5-1.7,11.5-5,15.2c-3.4,3.9-8.4,5.8-14.8,5.8c-6.4,0-11.3-2-14.8-5.8C458.1,86.5,456.5,81.4,456.5,75z"></path>
</g>
</svg>
